<?xml version="1.0" standalone="no"?><!DOCTYPE svg PUBLIC "-//W3C//DTD SVG 1.1//EN" "http://www.w3.org/Graphics/SVG/1.1/DTD/svg11.dtd" ><svg xmlns="http://www.w3.org/2000/svg"><metadata></metadata><defs><font id="50zgrJFIMiR3zfGRbqKkAg" horiz-adv-x="660"><font-face font-family="SAO UI" font-weight="400" font-stretch="normal" units-per-em="875" panose-1="2 0 5 3 0 0 0 0 0 0" ascent="720" descent="-155" x-height="0" bbox="12 -150 630 900" underline-thickness="45" underline-position="-67" unicode-range="U+0020-ff40" /><missing-glyph horiz-adv-x="437" d="M43 480 l351 0 l0 -480 l-351 0 l0 480 ZM351 43 l0 394 l-265 0 l0 -394 l265 0 Z" /><glyph glyph-name="" unicode="!" d="M37 86 l86 0 l0 -86 l-86 0 l0 86 ZM37 700 l86 0 l0 -350 l-14 -215 l-58 0 l-14 215 l0 350 Z" /><glyph glyph-name="" unicode="&quot;" d="M37 700 l86 0 l0 -172 l-86 0 l0 172 ZM187 700 l86 0 l0 -172 l-86 0 l0 172 Z" /><glyph glyph-name="" unicode="#" d="M37 343 l71 0 l8 64 l-79 0 l0 86 l88 0 l12 107 l86 0 l-12 -107 l64 0 l12 107 l86 0 l-12 -107 l62 0 l0 -86 l-71 0 l-8 -64 l79 0 l0 -86 l-88 0 l-12 -107 l-86 0 l12 107 l-64 0 l-12 -107 l-86 0 l12 107 l-62 0 l0 86 ZM258 343 l8 64 l-64 0 l-8 -64 l64 0 Z" /><glyph glyph-name="" unicode="$" d="M30 150 l86 0 l0 -64 l128 0 l0 221 l-154 0 q-25 0 -42 18 q-18 17 -18 42 l0 273 q0 25 18 42 q17 18 42 18 l47 0 l0 70 l86 0 l0 -70 l107 0 l0 -150 l-86 0 l0 64 l-128 0 l0 -221 l154 0 q25 0 42 -18 q18 -17 18 -42 l0 -273 q0 -25 -18 -42 q-17 -18 -42 -18 l-47 0 l0 -70 l-86 0 l0 70 l-47 0 q-25 0 -42 18 q-18 17 -18 42 l0 90 Z" /><glyph glyph-name="" unicode="%" d="M30 626 q0 25 18 42 q17 18 42 18 l130 0 q25 0 42 -18 q18 -17 18 -42 l0 -180 q0 -25 -18 -42 q-17 -18 -42 -18 l-130 0 q-25 0 -42 18 q-18 17 -18 42 l0 180 ZM469 700 l86 0 l-364 -700 l-86 0 l364 700 ZM194 472 l0 128 l-78 0 l0 -128 l78 0 ZM380 254 q0 25 18 42 q17 18 42 18 l130 0 q25 0 42 -18 q18 -17 18 -42 l0 -180 q0 -25 -18 -42 q-17 -18 -42 -18 l-130 0 q-25 0 -42 18 q-18 17 -18 42 l0 180 ZM544 100 l0 128 l-78 0 l0 -128 l78 0 Z" /><glyph glyph-name="" unicode="&amp;" d="M30 290 q0 25 18 42 q17 18 42 18 q-25 0 -42 18 q-18 17 -18 42 l0 230 q0 25 18 42 q17 18 42 18 l240 0 l0 -307 l32 -84 l32 84 l86 0 l-75 -197 l75 -196 l-86 0 l-32 84 l-32 -84 l-240 0 q-25 0 -42 18 q-18 17 -18 42 l0 230 ZM277 86 l42 110 l-42 111 l-111 0 q-21 0 -35 -14 q-15 -15 -15 -36 l0 -171 l161 0 ZM116 443 q0 -21 15 -35 q14 -15 35 -15 l78 0 l0 221 l-128 0 l0 -171 Z" /><glyph glyph-name="" unicode="&#39;" d="M37 700 l86 0 l0 -172 l-86 0 l0 172 Z" /><glyph glyph-name="" unicode="(" d="M37 350 q0 189 71 436 l65 0 q-50 -247 -50 -436 q0 -189 50 -436 l-65 0 q-71 247 -71 436 Z" /><glyph glyph-name="" unicode=")" d="M37 -86 q50 247 50 436 q0 189 -50 436 l65 0 q71 -247 71 -436 q0 -189 -71 -436 l-65 0 Z" /><glyph glyph-name="" unicode="*" d="M95 550 l-66 38 l43 74 l65 -38 l0 76 l86 0 l0 -76 l65 38 l43 -74 l-66 -38 l66 -38 l-43 -74 l-65 38 l0 -76 l-86 0 l0 76 l-65 -38 l-43 74 l66 38 Z" /><glyph glyph-name="" unicode="+" d="M30 393 l107 0 l0 107 l86 0 l0 -107 l107 0 l0 -86 l-107 0 l0 -107 l-86 0 l0 107 l-107 0 l0 86 Z" /><glyph glyph-name="" unicode="," d="M37 86 l86 0 l0 -172 l-86 0 l0 172 Z" /><glyph glyph-name="" unicode="-" d="M30 393 l300 0 l0 -86 l-300 0 l0 86 Z" /><glyph glyph-name="" unicode="." d="M37 86 l86 0 l0 -86 l-86 0 l0 86 Z" /><glyph glyph-name="" unicode="/" d="M144 786 l86 0 l-114 -786 l-86 0 l114 786 Z" /><glyph glyph-name="" unicode="0" d="M45 640 q0 25 18 42 q17 18 42 18 l240 0 l0 -640 q0 -25 -18 -42 q-17 -18 -42 -18 l-180 0 q-25 0 -42 18 q-18 17 -18 42 l0 580 ZM259 86 l0 528 l-128 0 l0 -528 l128 0 Z" /><glyph glyph-name="" unicode="1" d="M120 700 l150 0 l0 -700 l-86 0 l0 614 l-64 0 l0 86 Z" /><glyph glyph-name="" unicode="2" d="M45 333 q0 25 18 42 q17 18 42 18 l154 0 l0 221 l-128 0 l0 -64 l-86 0 l0 90 q0 25 18 42 q17 18 42 18 l240 0 l0 -333 q0 -25 -18 -42 q-17 -18 -42 -18 l-154 0 l0 -221 l214 0 l0 -86 l-300 0 l0 333 Z" /><glyph glyph-name="" unicode="3" d="M45 150 l86 0 l0 -64 l128 0 l0 221 l-164 0 l0 86 l164 0 l0 221 l-128 0 l0 -64 l-86 0 l0 90 q0 25 18 42 q17 18 42 18 l240 0 l0 -640 q0 -25 -18 -42 q-17 -18 -42 -18 l-180 0 q-25 0 -42 18 q-18 17 -18 42 l0 90 Z" /><glyph glyph-name="" unicode="4" d="M45 700 l86 0 l0 -307 l128 0 l0 307 l86 0 l0 -700 l-86 0 l0 307 l-154 0 q-25 0 -42 18 q-18 17 -18 42 l0 333 Z" /><glyph glyph-name="" unicode="5" d="M45 86 l214 0 l0 221 l-214 0 l0 393 l300 0 l0 -86 l-214 0 l0 -221 l154 0 q25 0 42 -18 q18 -17 18 -42 l0 -273 q0 -25 -18 -42 q-17 -18 -42 -18 l-240 0 l0 86 Z" /><glyph glyph-name="" unicode="6" d="M45 640 q0 25 18 42 q17 18 42 18 l240 0 l0 -86 l-214 0 l0 -221 l154 0 q25 0 42 -18 q18 -17 18 -42 l0 -273 q0 -25 -18 -42 q-17 -18 -42 -18 l-180 0 q-25 0 -42 18 q-18 17 -18 42 l0 580 ZM259 86 l0 221 l-128 0 l0 -221 l128 0 Z" /><glyph glyph-name="" unicode="7" d="M45 700 l240 0 q25 0 42 -18 q18 -17 18 -42 l-85 -640 l-86 0 l85 614 l-214 0 l0 86 Z" /><glyph glyph-name="" unicode="8" d="M45 640 q0 25 18 42 q17 18 42 18 l180 0 q25 0 42 -18 q18 -17 18 -42 l0 -580 q0 -25 -18 -42 q-17 -18 -42 -18 l-180 0 q-25 0 -42 18 q-18 17 -18 42 l0 580 ZM259 86 l0 221 l-128 0 l0 -221 l128 0 ZM259 393 l0 221 l-128 0 l0 -221 l128 0 Z" /><glyph glyph-name="" unicode="9" d="M45 86 l214 0 l0 221 l-154 0 q-25 0 -42 18 q-18 17 -18 42 l0 273 q0 25 18 42 q17 18 42 18 l240 0 l0 -640 q0 -25 -18 -42 q-17 -18 -42 -18 l-240 0 l0 86 ZM259 393 l0 221 l-128 0 l0 -221 l128 0 Z" /><glyph glyph-name="" unicode=":" d="M37 86 l86 0 l0 -86 l-86 0 l0 86 ZM37 500 l86 0 l0 -86 l-86 0 l0 86 Z" /><glyph glyph-name="" unicode=";" d="M37 86 l86 0 l0 -172 l-86 0 l0 172 ZM37 500 l86 0 l0 -86 l-86 0 l0 86 Z" /><glyph glyph-name="" unicode="&lt;" d="M194 600 l86 0 l-164 -250 l164 -250 l-86 0 l-164 250 l164 250 Z" /><glyph glyph-name="" unicode="=" d="M30 286 l300 0 l0 -86 l-300 0 l0 86 ZM30 500 l300 0 l0 -86 l-300 0 l0 86 Z" /><glyph glyph-name="" unicode="&gt;" d="M194 350 l-164 250 l86 0 l164 -250 l-164 -250 l-86 0 l164 250 Z" /><glyph glyph-name="" unicode="?" d="M30 640 q0 25 18 42 q17 18 42 18 l240 0 l0 -325 q0 -25 -18 -47 q-18 -21 -42 -26 l-47 -10 l0 -157 l-86 0 l0 226 l107 22 l0 231 l-128 0 l0 -64 l-86 0 l0 90 ZM137 86 l86 0 l0 -86 l-86 0 l0 86 Z" /><glyph glyph-name="" unicode="@" d="M30 640 q0 25 18 42 q17 18 42 18 l490 0 l0 -404 q0 -25 -18 -42 q-17 -18 -42 -18 l-90 0 l0 -26 q0 -25 -18 -42 q-17 -18 -42 -18 l-130 0 q-25 0 -42 18 q-18 17 -18 42 l0 280 q0 25 18 42 q17 18 42 18 l190 0 l0 -228 l64 0 l0 292 l-378 0 l0 -528 l264 0 l0 -86 l-290 0 q-25 0 -42 18 q-18 17 -18 42 l0 580 ZM345 236 l0 228 l-80 0 l0 -228 l80 0 Z" /><glyph glyph-name="" unicode="A" d="M76 640 q1 25 20 42 q19 18 44 18 l140 0 l50 -700 l-86 0 l-18 257 l-92 0 l-18 -257 l-86 0 l46 640 ZM219 343 l-19 271 l-40 0 l-20 -271 l79 0 Z" /><glyph glyph-name="" unicode="B" d="M30 640 q0 25 18 42 q17 18 42 18 l240 0 l0 -290 q0 -25 -18 -42 q-17 -18 -42 -18 q25 0 42 -18 q18 -17 18 -42 l0 -230 q0 -25 -18 -42 q-17 -18 -42 -18 l-240 0 l0 640 ZM244 86 l0 171 q0 21 -14 36 q-15 14 -36 14 l-78 0 l0 -221 l128 0 ZM194 393 q21 0 36 15 q14 14 14 35 l0 171 l-128 0 l0 -221 l78 0 Z" /><glyph glyph-name="" unicode="C" d="M30 640 q0 25 18 42 q17 18 42 18 l240 0 l0 -150 l-86 0 l0 64 l-128 0 l0 -528 l128 0 l0 64 l86 0 l0 -90 q0 -25 -18 -42 q-17 -18 -42 -18 l-180 0 q-25 0 -42 18 q-18 17 -18 42 l0 580 Z" /><glyph glyph-name="" unicode="D" d="M30 700 l240 0 q25 0 42 -18 q18 -17 18 -42 l0 -580 q0 -25 -18 -42 q-17 -18 -42 -18 l-240 0 l0 700 ZM244 86 l0 528 l-128 0 l0 -528 l128 0 Z" /><glyph glyph-name="" unicode="E" d="M30 700 l300 0 l0 -86 l-214 0 l0 -221 l164 0 l0 -86 l-164 0 l0 -221 l214 0 l0 -86 l-300 0 l0 700 Z" /><glyph glyph-name="" unicode="F" d="M30 700 l300 0 l0 -86 l-214 0 l0 -221 l164 0 l0 -86 l-164 0 l0 -307 l-86 0 l0 700 Z" /><glyph glyph-name="" unicode="G" d="M30 640 q0 25 18 42 q17 18 42 18 l240 0 l0 -150 l-86 0 l0 64 l-128 0 l0 -528 l128 0 l0 221 l-64 0 l0 86 l150 0 l0 -333 q0 -25 -18 -42 q-17 -18 -42 -18 l-180 0 q-25 0 -42 18 q-18 17 -18 42 l0 580 Z" /><glyph glyph-name="" unicode="H" d="M30 700 l86 0 l0 -307 l128 0 l0 307 l86 0 l0 -700 l-86 0 l0 307 l-128 0 l0 -307 l-86 0 l0 700 Z" /><glyph glyph-name="" unicode="I" d="M37 700 l86 0 l0 -700 l-86 0 l0 700 Z" /><glyph glyph-name="" unicode="J" d="M30 150 l86 0 l0 -64 l128 0 l0 528 l-114 0 l0 86 l200 0 l0 -640 q0 -25 -18 -42 q-17 -18 -42 -18 l-180 0 q-25 0 -42 18 q-18 17 -18 42 l0 90 Z" /><glyph glyph-name="" unicode="K" d="M30 700 l86 0 l0 -353 l128 353 l86 0 l-100 -275 l100 -425 l-86 0 l-66 281 l-62 -171 l0 -110 l-86 0 l0 700 Z" /><glyph glyph-name="" unicode="L" d="M30 700 l86 0 l0 -614 l214 0 l0 -86 l-300 0 l0 700 Z" /><glyph glyph-name="" unicode="M" d="M30 640 q0 25 18 42 q17 18 42 18 l340 0 l0 -700 l-86 0 l0 614 l-71 0 l0 -614 l-86 0 l0 614 l-71 0 l0 -614 l-86 0 l0 640 Z" /><glyph glyph-name="" unicode="N" d="M30 700 l86 0 l128 -419 l0 419 l86 0 l0 -700 l-86 0 l-128 419 l0 -419 l-86 0 l0 700 Z" /><glyph glyph-name="" unicode="O" d="M30 640 q0 25 18 42 q17 18 42 18 l180 0 q25 0 42 -18 q18 -17 18 -42 l0 -580 q0 -25 -18 -42 q-17 -18 -42 -18 l-180 0 q-25 0 -42 18 q-18 17 -18 42 l0 580 ZM244 86 l0 528 l-128 0 l0 -528 l128 0 Z" /><glyph glyph-name="" unicode="P" d="M30 640 q0 25 18 42 q17 18 42 18 l240 0 l0 -333 q0 -25 -18 -42 q-17 -18 -42 -18 l-154 0 l0 -307 l-86 0 l0 640 ZM244 393 l0 221 l-128 0 l0 -221 l128 0 Z" /><glyph glyph-name="" unicode="Q" d="M30 640 q0 25 18 42 q17 18 42 18 l180 0 q25 0 42 -18 q18 -17 18 -42 l0 -580 q0 -25 -18 -42 q-17 -18 -42 -18 l-42 0 l12 -50 l-86 0 l-12 50 l-52 0 q-25 0 -42 18 q-18 17 -18 42 l0 580 ZM244 86 l0 528 l-128 0 l0 -528 l128 0 Z" /><glyph glyph-name="" unicode="R" d="M30 640 q0 25 18 42 q17 18 42 18 l240 0 l0 -333 q0 -25 -18 -42 q-17 -18 -42 -18 l-12 0 l72 -307 l-86 0 l-72 307 l-56 0 l0 -307 l-86 0 l0 640 ZM244 393 l0 221 l-128 0 l0 -221 l128 0 Z" /><glyph glyph-name="" unicode="S" d="M30 150 l86 0 l0 -64 l128 0 l0 221 l-154 0 q-25 0 -42 18 q-18 17 -18 42 l0 273 q0 25 18 42 q17 18 42 18 l240 0 l0 -150 l-86 0 l0 64 l-128 0 l0 -221 l154 0 q25 0 42 -18 q18 -17 18 -42 l0 -273 q0 -25 -18 -42 q-17 -18 -42 -18 l-180 0 q-25 0 -42 18 q-18 17 -18 42 l0 90 Z" /><glyph glyph-name="" unicode="T" d="M30 700 l300 0 l0 -86 l-107 0 l0 -614 l-86 0 l0 614 l-107 0 l0 86 Z" /><glyph glyph-name="" unicode="U" d="M30 700 l86 0 l0 -614 l128 0 l0 614 l86 0 l0 -640 q0 -25 -18 -42 q-17 -18 -42 -18 l-180 0 q-25 0 -42 18 q-18 17 -18 42 l0 640 Z" /><glyph glyph-name="" unicode="V" d="M116 700 l44 -614 l40 0 l44 614 l86 0 l-50 -700 l-200 0 l-50 700 l86 0 Z" /><glyph glyph-name="" unicode="W" d="M30 700 l86 0 l0 -614 l71 0 l0 614 l86 0 l0 -614 l71 0 l0 614 l86 0 l0 -640 q0 -25 -18 -42 q-17 -18 -42 -18 l-280 0 q-25 0 -42 18 q-18 17 -18 42 l0 640 Z" /><glyph glyph-name="" unicode="X" d="M137 350 l-107 350 l86 0 l64 -209 l64 209 l86 0 l-107 -350 l107 -350 l-86 0 l-64 209 l-64 -209 l-86 0 l107 350 Z" /><glyph glyph-name="" unicode="Y" d="M116 700 l64 -256 l64 256 l86 0 l-107 -428 l0 -272 l-86 0 l0 272 l-107 428 l86 0 Z" /><glyph glyph-name="" unicode="Z" d="M218 614 l-188 0 l0 86 l300 0 l-188 -614 l188 0 l0 -86 l-300 0 l188 614 Z" /><glyph glyph-name="" unicode="[" d="M37 786 l136 0 l0 -86 l-50 0 l0 -700 l50 0 l0 -86 l-136 0 l0 872 Z" /><glyph glyph-name="" unicode="\" d="M116 786 l114 -786 l-86 0 l-114 786 l86 0 Z" /><glyph glyph-name="" unicode="]" d="M87 0 l0 700 l-50 0 l0 86 l136 0 l0 -872 l-136 0 l0 86 l50 0 Z" /><glyph glyph-name="" unicode="^" d="M137 700 l86 0 l107 -300 l-86 0 l-64 179 l-64 -179 l-86 0 l107 300 Z" /><glyph glyph-name="" unicode="_" d="M30 86 l300 0 l0 -86 l-300 0 l0 86 Z" /><glyph glyph-name="" unicode="`" d="M123 700 l50 -150 l-86 0 l-50 150 l86 0 Z" /><glyph glyph-name="" unicode="a" d="M30 283 q0 25 18 42 q17 18 42 18 l104 0 l0 38 l-164 33 l0 86 l189 -38 q24 -5 43 -26 q18 -22 18 -47 l0 -389 l-190 0 q-25 0 -42 18 q-18 17 -18 42 l0 223 ZM194 86 l0 171 l-78 0 l0 -171 l78 0 Z" /><glyph glyph-name="" unicode="b" d="M30 700 l86 0 l0 -200 l164 0 l0 -440 q0 -25 -18 -42 q-17 -18 -42 -18 l-190 0 l0 700 ZM194 86 l0 328 l-78 0 l0 -328 l78 0 Z" /><glyph glyph-name="" unicode="c" d="M30 440 q0 25 18 42 q17 18 42 18 l190 0 l0 -150 l-86 0 l0 64 l-78 0 l0 -328 l78 0 l0 64 l86 0 l0 -90 q0 -25 -18 -42 q-17 -18 -42 -18 l-130 0 q-25 0 -42 18 q-18 17 -18 42 l0 380 Z" /><glyph glyph-name="" unicode="d" d="M30 440 q0 25 18 42 q17 18 42 18 l104 0 l0 200 l86 0 l0 -700 l-190 0 q-25 0 -42 18 q-18 17 -18 42 l0 380 ZM194 86 l0 328 l-78 0 l0 -328 l78 0 Z" /><glyph glyph-name="" unicode="e" d="M30 440 q0 25 18 42 q17 18 42 18 l190 0 l0 -283 q0 -25 -18 -42 q-17 -18 -42 -18 l-104 0 l0 -71 l164 0 l0 -86 l-190 0 q-25 0 -42 18 q-18 17 -18 42 l0 380 ZM194 243 l0 171 l-78 0 l0 -171 l78 0 Z" /><glyph glyph-name="" unicode="f" d="M30 589 q0 25 18 47 q18 21 42 26 l190 38 l0 -86 l-164 -33 l0 -114 l164 33 l0 -86 l-164 -33 l0 -381 l-86 0 l0 589 Z" /><glyph glyph-name="" unicode="g" d="M30 440 q0 25 18 42 q17 18 42 18 l190 0 l0 -539 q0 -25 -18 -47 q-19 -21 -43 -26 l-189 -38 l0 86 l164 33 l0 31 l-104 0 q-25 0 -42 18 q-18 17 -18 42 l0 380 ZM194 86 l0 328 l-78 0 l0 -328 l78 0 Z" /><glyph glyph-name="" unicode="h" d="M30 700 l86 0 l0 -200 l104 0 q25 0 42 -18 q18 -17 18 -42 l0 -440 l-86 0 l0 414 l-78 0 l0 -414 l-86 0 l0 700 Z" /><glyph glyph-name="" unicode="i" d="M37 500 l86 0 l0 -500 l-86 0 l0 500 ZM37 650 l86 0 l0 -100 l-86 0 l0 100 Z" /><glyph glyph-name="" unicode="j" d="M94 -31 l0 445 l-50 0 l0 86 l136 0 l0 -539 q0 -25 -18 -47 q-19 -21 -43 -26 l-89 -18 l0 86 l64 13 ZM94 646 l86 0 l0 -100 l-86 0 l0 100 Z" /><glyph glyph-name="" unicode="k" d="M30 700 l86 0 l0 -382 l78 182 l86 0 l-93 -218 l97 -282 l-86 0 l-59 171 l-23 -54 l0 -117 l-86 0 l0 700 Z" /><glyph glyph-name="" unicode="l" d="M30 700 l86 0 l0 -614 l64 0 l0 -86 l-150 0 l0 700 Z" /><glyph glyph-name="" unicode="m" d="M30 440 q0 25 18 42 q17 18 42 18 l340 0 l0 -500 l-86 0 l0 414 l-71 0 l0 -414 l-86 0 l0 414 l-71 0 l0 -414 l-86 0 l0 440 Z" /><glyph glyph-name="" unicode="n" d="M30 440 q0 25 18 42 q17 18 42 18 l190 0 l0 -500 l-86 0 l0 414 l-78 0 l0 -414 l-86 0 l0 440 Z" /><glyph glyph-name="" unicode="o" d="M30 440 q0 25 18 42 q17 18 42 18 l130 0 q25 0 42 -18 q18 -17 18 -42 l0 -380 q0 -25 -18 -42 q-17 -18 -42 -18 l-130 0 q-25 0 -42 18 q-18 17 -18 42 l0 380 ZM194 86 l0 328 l-78 0 l0 -328 l78 0 Z" /><glyph glyph-name="" unicode="p" d="M30 440 q0 25 18 42 q17 18 42 18 l190 0 l0 -440 q0 -25 -18 -42 q-17 -18 -42 -18 l-104 0 l0 -150 l-86 0 l0 590 ZM194 86 l0 328 l-78 0 l0 -328 l78 0 Z" /><glyph glyph-name="" unicode="q" d="M30 440 q0 25 18 42 q17 18 42 18 l190 0 l0 -650 l-86 0 l0 150 l-104 0 q-25 0 -42 18 q-18 17 -18 42 l0 380 ZM194 86 l0 328 l-78 0 l0 -328 l78 0 Z" /><glyph glyph-name="" unicode="r" d="M30 389 q0 25 18 47 q18 21 42 26 l190 38 l0 -86 l-164 -33 l0 -381 l-86 0 l0 389 Z" /><glyph glyph-name="" unicode="s" d="M30 150 l86 0 l0 -64 l78 0 l0 121 l-104 0 q-25 0 -42 18 q-18 17 -18 42 l0 173 q0 25 18 42 q17 18 42 18 l190 0 l0 -150 l-86 0 l0 64 l-78 0 l0 -121 l104 0 q25 0 42 -18 q18 -17 18 -42 l0 -173 q0 -25 -18 -42 q-17 -18 -42 -18 l-130 0 q-25 0 -42 18 q-18 17 -18 42 l0 90 Z" /><glyph glyph-name="" unicode="t" d="M30 650 l86 0 l0 -150 l164 0 l0 -86 l-164 0 l0 -328 l164 0 l0 -86 l-190 0 q-25 0 -42 18 q-18 17 -18 42 l0 590 Z" /><glyph glyph-name="" unicode="u" d="M30 500 l86 0 l0 -414 l78 0 l0 414 l86 0 l0 -500 l-190 0 q-25 0 -42 18 q-18 17 -18 42 l0 440 Z" /><glyph glyph-name="" unicode="v" d="M116 500 l39 -260 l39 260 l86 0 l-75 -500 l-100 0 l-75 500 l86 0 Z" /><glyph glyph-name="" unicode="w" d="M30 500 l86 0 l0 -414 l71 0 l0 414 l86 0 l0 -414 l71 0 l0 414 l86 0 l0 -440 q0 -25 -18 -42 q-17 -18 -42 -18 l-280 0 q-25 0 -42 18 q-18 17 -18 42 l0 440 Z" /><glyph glyph-name="" unicode="x" d="M112 250 l-82 250 l86 0 l39 -119 l39 119 l86 0 l-82 -250 l82 -250 l-86 0 l-39 119 l-39 -119 l-86 0 l82 250 Z" /><glyph glyph-name="" unicode="y" d="M30 500 l86 0 l0 -414 l78 0 l0 414 l86 0 l0 -538 q0 -25 -18 -47 q-18 -22 -43 -27 l-189 -38 l0 86 l164 33 l0 31 l-104 0 q-25 0 -42 18 q-18 17 -18 42 l0 440 Z" /><glyph glyph-name="" unicode="z" d="M166 414 l-136 0 l0 86 l250 0 l-136 -414 l136 0 l0 -86 l-250 0 l136 414 Z" /><glyph glyph-name="" unicode="{" d="M37 393 l50 0 l0 333 q0 25 18 42 q17 18 42 18 l76 0 l0 -86 l-50 0 l0 -700 l50 0 l0 -86 l-76 0 q-25 0 -42 18 q-18 17 -18 42 l0 333 l-50 0 l0 86 Z" /><glyph glyph-name="" unicode="|" d="M37 786 l86 0 l0 -872 l-86 0 l0 872 Z" /><glyph glyph-name="" unicode="}" d="M87 0 l0 700 l-50 0 l0 86 l76 0 q25 0 42 -18 q18 -17 18 -42 l0 -333 l50 0 l0 -86 l-50 0 l0 -333 q0 -25 -18 -42 q-17 -18 -42 -18 l-76 0 l0 86 l50 0 Z" /><glyph glyph-name="" unicode="~" d="M30 393 l100 50 l100 -50 l100 50 l0 -86 l-100 -50 l-100 50 l-100 -50 l0 86 Z" /><glyph glyph-name="" unicode="¥" d="M30 236 l107 0 l0 78 l-107 0 l0 86 l100 0 l-100 300 l86 0 l64 -192 l64 192 l86 0 l-100 -300 l100 0 l0 -86 l-107 0 l0 -78 l107 0 l0 -86 l-107 0 l0 -150 l-86 0 l0 150 l-107 0 l0 86 Z" /><glyph glyph-name="" unicode="©" d="M30 640 q0 25 18 42 q17 18 42 18 l490 0 l0 -640 q0 -25 -18 -42 q-17 -18 -42 -18 l-430 0 q-25 0 -42 18 q-18 17 -18 42 l0 580 ZM494 86 l0 528 l-378 0 l0 -528 l378 0 ZM180 490 q0 25 18 42 q17 18 42 18 l190 0 l0 -150 l-85 0 l0 64 l-80 0 l0 -228 l80 0 l0 64 l85 0 l0 -90 q0 -25 -18 -42 q-17 -18 -42 -18 l-130 0 q-25 0 -42 18 q-18 17 -18 42 l0 280 Z" /><glyph glyph-name="" unicode="´" d="M87 700 l86 0 l-50 -150 l-86 0 l50 150 Z" /><glyph glyph-name="" unicode="·" d="M37 393 l86 0 l0 -86 l-86 0 l0 86 Z" /><glyph glyph-name="" unicode="×" d="M120 350 l-76 76 l60 60 l76 -76 l76 76 l60 -60 l-76 -76 l76 -76 l-60 -60 l-76 76 l-76 -76 l-60 60 l76 76 Z" /><glyph glyph-name="" unicode="é" d="M30 440 q0 25 18 42 q17 18 42 18 l190 0 l0 -283 q0 -25 -18 -42 q-17 -18 -42 -18 l-104 0 l0 -71 l164 0 l0 -86 l-190 0 q-25 0 -42 18 q-18 17 -18 42 l0 380 ZM162 700 l86 0 l-50 -150 l-86 0 l50 150 ZM194 243 l0 171 l-78 0 l0 -171 l78 0 Z" /><glyph glyph-name="" unicode="ò" d="M30 440 q0 25 18 42 q17 18 42 18 l130 0 q25 0 42 -18 q18 -17 18 -42 l0 -380 q0 -25 -18 -42 q-17 -18 -42 -18 l-130 0 q-25 0 -42 18 q-18 17 -18 42 l0 380 ZM148 700 l50 -150 l-86 0 l-50 150 l86 0 ZM194 86 l0 328 l-78 0 l0 -328 l78 0 Z" /><glyph glyph-name="" unicode="ó" d="M30 440 q0 25 18 42 q17 18 42 18 l130 0 q25 0 42 -18 q18 -17 18 -42 l0 -380 q0 -25 -18 -42 q-17 -18 -42 -18 l-130 0 q-25 0 -42 18 q-18 17 -18 42 l0 380 ZM162 700 l86 0 l-50 -150 l-86 0 l50 150 ZM194 86 l0 328 l-78 0 l0 -328 l78 0 Z" /><glyph glyph-name="" unicode="&#x300;" d="M173 900 l50 -150 l-86 0 l-50 150 l86 0 Z" /><glyph glyph-name="" unicode="&#x301;" d="M187 900 l86 0 l-50 -150 l-86 0 l50 150 Z" /><glyph glyph-name="" unicode="&#x3a3;" d="M30 86 l107 264 l-107 264 l0 86 l300 0 l0 -86 l-214 0 l107 -264 l-107 -264 l214 0 l0 -86 l-300 0 l0 86 Z" /><glyph glyph-name="" unicode="&#x3a8;" d="M30 640 q0 25 18 42 q17 18 42 18 l26 0 l0 -464 l71 0 l0 464 l86 0 l0 -464 l71 0 l0 464 l26 0 q25 0 42 -18 q18 -17 18 -42 l0 -430 q0 -25 -18 -42 q-17 -18 -42 -18 l-97 0 l0 -150 l-86 0 l0 150 l-97 0 q-25 0 -42 18 q-18 17 -18 42 l0 430 Z" /><glyph glyph-name="" unicode="&#x3c1;" d="M30 440 q0 25 18 42 q17 18 42 18 l190 0 l0 -440 q0 -25 -18 -42 q-17 -18 -42 -18 l-104 0 l0 -150 l-86 0 l0 590 ZM194 86 l0 328 l-78 0 l0 -328 l78 0 Z" /><glyph glyph-name="" unicode="&#x3c8;" d="M30 440 q0 25 18 42 q17 18 42 18 l26 0 l0 -414 l71 0 l0 414 l86 0 l0 -414 l71 0 l0 414 l26 0 q25 0 42 -18 q18 -17 18 -42 l0 -380 q0 -25 -18 -42 q-17 -18 -42 -18 l-97 0 l0 -150 l-86 0 l0 150 l-97 0 q-25 0 -42 18 q-18 17 -18 42 l0 380 Z" /><glyph glyph-name="" unicode="&#x3c9;" d="M30 440 q0 25 18 42 q17 18 42 18 l26 0 l0 -414 l71 0 l0 314 l86 0 l0 -314 l71 0 l0 414 l26 0 q25 0 42 -18 q18 -17 18 -42 l0 -380 q0 -25 -18 -42 q-17 -18 -42 -18 l-280 0 q-25 0 -42 18 q-18 17 -18 42 l0 380 Z" /><glyph glyph-name="" unicode="&#x414;" d="M36 86 l40 554 q1 25 20 42 q19 18 44 18 l190 0 l0 -614 l18 0 l0 -186 l-86 0 l0 100 l-164 0 l0 -100 l-86 0 l0 186 l24 0 ZM244 86 l0 528 l-84 0 l-38 -528 l122 0 Z" /><glyph glyph-name="" unicode="&#x434;" d="M39 86 l37 354 q1 25 20 42 q19 18 44 18 l190 0 l0 -414 l18 0 l0 -186 l-86 0 l0 100 l-164 0 l0 -100 l-86 0 l0 186 l27 0 ZM244 86 l0 328 l-85 0 l-34 -328 l119 0 Z" /><glyph glyph-name="" unicode="&#x2018;" d="M37 700 l86 0 l0 -172 l-86 0 l0 172 Z" /><glyph glyph-name="" unicode="&#x2019;" d="M37 700 l86 0 l0 -172 l-86 0 l0 172 Z" /><glyph glyph-name="" unicode="&#x201c;" d="M37 700 l86 0 l0 -172 l-86 0 l0 172 ZM187 700 l86 0 l0 -172 l-86 0 l0 172 Z" /><glyph glyph-name="" unicode="&#x201d;" d="M37 700 l86 0 l0 -172 l-86 0 l0 172 ZM187 700 l86 0 l0 -172 l-86 0 l0 172 Z" /><glyph glyph-name="" unicode="&#x2022;" d="M37 393 l86 0 l0 -86 l-86 0 l0 86 Z" /><glyph glyph-name="" unicode="&#x2026;" d="M37 86 l86 0 l0 -86 l-86 0 l0 86 ZM162 86 l86 0 l0 -86 l-86 0 l0 86 ZM287 86 l86 0 l0 -86 l-86 0 l0 86 Z" /><glyph glyph-name="" unicode="&#x2161;" d="M37 700 l86 0 l0 -700 l-86 0 l0 700 ZM187 700 l86 0 l0 -700 l-86 0 l0 700 Z" /><glyph glyph-name="" unicode="&#x2162;" d="M37 700 l86 0 l0 -700 l-86 0 l0 700 ZM187 700 l86 0 l0 -700 l-86 0 l0 700 ZM337 700 l86 0 l0 -700 l-86 0 l0 700 Z" /><glyph glyph-name="" unicode="&#x2172;" d="M37 500 l86 0 l0 -500 l-86 0 l0 500 ZM37 650 l86 0 l0 -100 l-86 0 l0 100 ZM187 500 l86 0 l0 -500 l-86 0 l0 500 ZM187 650 l86 0 l0 -100 l-86 0 l0 100 ZM337 500 l86 0 l0 -500 l-86 0 l0 500 ZM337 650 l86 0 l0 -100 l-86 0 l0 100 Z" /><glyph glyph-name="" unicode="&#x3010;" d="M30 700 l195 0 l0 -35 l-119 -315 l119 -315 l0 -35 l-195 0 l0 700 Z" /><glyph glyph-name="" unicode="&#x3011;" d="M30 35 l119 315 l-119 315 l0 35 l195 0 l0 -700 l-195 0 l0 35 Z" /><glyph glyph-name="" unicode="&#xff08;" d="M37 726 q0 25 18 42 q17 18 42 18 l76 0 l0 -86 l-50 0 l0 -700 l50 0 l0 -86 l-76 0 q-25 0 -42 18 q-18 17 -18 42 l0 752 Z" /><glyph glyph-name="" unicode="&#xff09;" d="M85 0 l0 700 l-48 0 l0 86 l76 0 q25 0 42 -18 q18 -17 18 -42 l0 -752 q0 -25 -18 -42 q-17 -18 -42 -18 l-76 0 l0 86 l48 0 Z" /><glyph glyph-name="" unicode="&#xff40;" d="M37 700 l86 0 l0 -172 l-86 0 l0 172 Z" /></font>
</defs>
</svg>
